<svg id="Layer_1" data-name="Layer 1" xmlns="http://www.w3.org/2000/svg" viewBox="0 0 724.71 308.09"><defs><style>.cls-1{fill:#003375;}.cls-2{fill:#ce8040;}.cls-3{fill:none;stroke:#f4bb8b;stroke-miterlimit:10;stroke-width:2px;}</style></defs><path class="cls-1" d="M38.3,110.3h72.34a0,0,0,0,1,0,0V269.79a38.3,38.3,0,0,1-38.3,38.3H0a0,0,0,0,1,0,0V148.6A38.3,38.3,0,0,1,38.3,110.3Z"/><path class="cls-2" d="M0,0H86.13a24.51,24.51,0,0,1,24.51,24.51v64a0,0,0,0,1,0,0H24.51A24.51,24.51,0,0,1,0,64V0A0,0,0,0,1,0,0Z"/><path class="cls-1" d="M132.6,0h67.74a60.09,60.09,0,0,1,60.09,60.09v55.15a60.09,60.09,0,0,1-60.09,60.09H132.6a.85.85,0,0,1-.85-.85V.85A.85.85,0,0,1,132.6,0Z"/><path class="cls-1" d="M309.39,580.57s0,47.91,4.76,64.68c4.08,14.35,18.1,45.56,72.86,48.68,53.78,3.06,52.08-56.63,44.93-69.79s-26.89-21.1-55.49-15.66C346.27,614.23,309.39,580.57,309.39,580.57Z" transform="translate(-177.64 -385.96)"/><path class="cls-1" d="M496.93,507.87V495.82h14.28v12.05Zm.36,53.1V513.14h13.56V561Z" transform="translate(-177.64 -385.96)"/><path class="cls-1" d="M563,561l-13.39-20H538.79v20H525V498.5H553.6q11.16,0,17.36,5.44t6.2,15.18v.17q0,7.59-3.7,12.37a21.49,21.49,0,0,1-9.69,7L579,561Zm.27-41.14c0-3-1-5.21-2.86-6.69s-4.55-2.23-7.94-2.23H538.79v17.93h13.92q5.09,0,7.81-2.41a8.15,8.15,0,0,0,2.72-6.42Z" transform="translate(-177.64 -385.96)"/><path class="cls-2" d="M603.56,505.37v20.8h22.67v6.69H603.56v21.42h25.35V561H595.44V498.68h33.47v6.69Z" transform="translate(-177.64 -385.96)"/><path class="cls-2" d="M666.75,561l-11.6-18.2L644,561h-8.48l15.8-24.27-15.8-24.63h9.19l11.61,18.11,11.06-18.11h8.48l-15.71,24.18L675.94,561Z" transform="translate(-177.64 -385.96)"/><path class="cls-2" d="M699.28,514.07a21.5,21.5,0,0,1,11.11-2.81,22.81,22.81,0,0,1,11.82,3.13,22,22,0,0,1,8.35,8.79,27.49,27.49,0,0,1,3,13.16,28.11,28.11,0,0,1-3,13.21,22.29,22.29,0,0,1-20.17,12.23,21.33,21.33,0,0,1-11-2.81,20.13,20.13,0,0,1-7.28-7v32.22H684V512.07h8.12v9A19.38,19.38,0,0,1,699.28,514.07Zm23.78,12.63a15.42,15.42,0,0,0-6-6.24,16.67,16.67,0,0,0-8.35-2.15,16.19,16.19,0,0,0-8.25,2.19,15.93,15.93,0,0,0-6.07,6.34,21.5,21.5,0,0,0,0,19.27,15.93,15.93,0,0,0,6.07,6.34,16.19,16.19,0,0,0,8.25,2.19,16.4,16.4,0,0,0,8.35-2.19,15.69,15.69,0,0,0,6-6.34,20.28,20.28,0,0,0,2.23-9.77A19.87,19.87,0,0,0,723.06,526.7Z" transform="translate(-177.64 -385.96)"/><path class="cls-2" d="M753.18,558.65a22.26,22.26,0,0,1-8.75-8.88,27.21,27.21,0,0,1-3.16-13.34,26.42,26.42,0,0,1,3.25-13.25,22.53,22.53,0,0,1,8.88-8.84,27.25,27.25,0,0,1,25.17,0,22.54,22.54,0,0,1,8.88,8.79,26.4,26.4,0,0,1,3.26,13.3,26,26,0,0,1-3.35,13.34,23.15,23.15,0,0,1-9.06,8.88,25.86,25.86,0,0,1-12.67,3.13A25,25,0,0,1,753.18,558.65Zm20.66-6.07a15.53,15.53,0,0,0,6.2-6.15,19.71,19.71,0,0,0,2.37-10,20,20,0,0,0-2.32-10,15.25,15.25,0,0,0-6.07-6.11,17.51,17.51,0,0,0-16.29,0,14.7,14.7,0,0,0-5.93,6.11,20.67,20.67,0,0,0-2.23,10,21.23,21.23,0,0,0,2.18,10.09,14.59,14.59,0,0,0,5.85,6.11,16.39,16.39,0,0,0,8,2A17.16,17.16,0,0,0,773.84,552.58Z" transform="translate(-177.64 -385.96)"/><path class="cls-2" d="M815.65,513.49a19,19,0,0,1,9.69-2.32v8.39H823.2q-13.66,0-13.66,14.82V561h-8.12v-48.9h8.12V520A15.64,15.64,0,0,1,815.65,513.49Z" transform="translate(-177.64 -385.96)"/><path class="cls-2" d="M844.61,518.76v28.83q0,3.57,1.52,5t5.27,1.47h6V561h-7.32q-6.78,0-10.18-3.12t-3.39-10.26V518.76h-6.33v-6.69h6.33V499.75h8.12v12.32h12.77v6.69Z" transform="translate(-177.64 -385.96)"/><path class="cls-2" d="M874.42,559.86a17.09,17.09,0,0,1-7-5.36,14.21,14.21,0,0,1-2.85-7.9h8.39a8.2,8.2,0,0,0,3.43,6,13,13,0,0,0,8.08,2.32,11.77,11.77,0,0,0,7.32-2,6.27,6.27,0,0,0,2.67-5.17,5.1,5.1,0,0,0-2.85-4.78,40.12,40.12,0,0,0-8.84-3.08,64.85,64.85,0,0,1-8.88-2.9,15.8,15.8,0,0,1-5.89-4.37,11.39,11.39,0,0,1-2.45-7.63,11.53,11.53,0,0,1,2.23-6.87,15.09,15.09,0,0,1,6.34-5,22.74,22.74,0,0,1,9.37-1.83q8.12,0,13.12,4.11a14.78,14.78,0,0,1,5.35,11.24h-8.12a8.4,8.4,0,0,0-3.08-6.15,11.46,11.46,0,0,0-7.54-2.33,11.6,11.6,0,0,0-7,1.88,5.79,5.79,0,0,0-2.59,4.91,5.39,5.39,0,0,0,1.56,4,11.48,11.48,0,0,0,3.93,2.5,67.4,67.4,0,0,0,6.56,2.09,71.11,71.11,0,0,1,8.57,2.82,14.84,14.84,0,0,1,5.66,4.15,11.07,11.07,0,0,1,2.46,7.23,12.41,12.41,0,0,1-2.23,7.22,14.86,14.86,0,0,1-6.3,5.05,22.43,22.43,0,0,1-9.32,1.83A25.32,25.32,0,0,1,874.42,559.86Z" transform="translate(-177.64 -385.96)"/><line class="cls-3" x1="288.68" y1="30.72" x2="288.68" y2="277.36"/></svg>