<svg id="Layer_1" data-name="Layer 1" xmlns="http://www.w3.org/2000/svg" viewBox="0 0 608.13 940.56"><defs><style>.cls-1,.cls-3{fill:#fff;}.cls-2{fill:none;stroke:#fff;stroke-miterlimit:10;stroke-width:3.35px;}.cls-3{isolation:isolate;font-size:31.18px;font-family:Poppins-Regular, Poppins;}</style></defs><path class="cls-1" d="M325.4,327.27H494.3V699.82a89.43,89.43,0,0,1-89.43,89.43H235.94V416.71a89.43,89.43,0,0,1,89.43-89.44h0Z" transform="translate(-235.94 -69.72)"/><path class="cls-1" d="M235.94,69.72H437A57.23,57.23,0,0,1,494.27,127h0V276.39H293.34a57.22,57.22,0,0,1-57.4-57v-.18h0Z" transform="translate(-235.94 -69.72)"/><path class="cls-1" d="M545.57,69.72H703.75A140.31,140.31,0,0,1,844.06,210h0V338.78A140.31,140.31,0,0,1,703.9,479.25H545.57a2,2,0,0,1-2-2h0V71.72a2,2,0,0,1,2-2Z" transform="translate(-235.94 -69.72)"/><path class="cls-1" d="M543.58,524.12s0,111.79,11.12,151.07c9.52,33.51,42.3,106.36,170.14,113.67,125.57,7.13,121.58-132.25,104.9-163S767,576.63,700.18,589.32C629.69,602.71,543.58,524.12,543.58,524.12Z" transform="translate(-235.94 -69.72)"/><path class="cls-1" d="M235.94,856.39V838.62h21.15v17.77Zm.51,78.31V864.15h20v70.58Z" transform="translate(-235.94 -69.72)"/><path class="cls-1" d="M333.38,934.73l-19.73-29.45h-16v29.48H277.36V842.61h42.3q16.44,0,25.59,8A28.18,28.18,0,0,1,354.32,873v.24a29,29,0,0,1-5.44,18.13,31.82,31.82,0,0,1-14.29,10.33L357,934.64Zm.39-60.67a11.85,11.85,0,0,0-4.2-9.85,18.45,18.45,0,0,0-11.72-3.29H297.69v26.44h20.52a16.67,16.67,0,0,0,11.51-3.57,12.09,12.09,0,0,0,4-9.45Z" transform="translate(-235.94 -69.72)"/><path class="cls-1" d="M393.2,852.7v30.67h33.42v9.82H393.2v31.57h37.38v9.91H381.24V842.82h49.34v9.88Z" transform="translate(-235.94 -69.72)"/><path class="cls-1" d="M486.38,934.73l-17.1-26.83-16.43,26.83H440.34L463.63,899,440.34,862.7h13.53L471,889.41l16.31-26.71h12.51l-23.17,35.69,23.26,36.43Z" transform="translate(-235.94 -69.72)"/><path class="cls-1" d="M534.36,865.54a31.88,31.88,0,0,1,16.38-4.17A34.06,34.06,0,0,1,568.3,866a32.48,32.48,0,0,1,12.29,13A40.44,40.44,0,0,1,585,898.39a41.27,41.27,0,0,1-4.44,19.45A32.82,32.82,0,0,1,550.86,936a31.45,31.45,0,0,1-16.22-4.14,29.29,29.29,0,0,1-10.73-10.33V969H511.82V862.67h12.09v13.27A28.63,28.63,0,0,1,534.36,865.54Zm35,18.62a22.71,22.71,0,0,0-8.85-9.07,24.43,24.43,0,0,0-12.3-3,23.46,23.46,0,0,0-21.15,12.57,31.75,31.75,0,0,0,0,28.4,23.93,23.93,0,0,0,21.15,12.6,24.42,24.42,0,0,0,12.3-3.23,23.14,23.14,0,0,0,8.85-9.37,29.82,29.82,0,0,0,3.3-14.38,29.08,29.08,0,0,0-3.3-14.23Z" transform="translate(-235.94 -69.72)"/><path class="cls-1" d="M613.83,931.26a32.48,32.48,0,0,1-12.9-13.08,40.11,40.11,0,0,1-4.66-19.67A38.79,38.79,0,0,1,601.08,879a33.16,33.16,0,0,1,13.08-13,40,40,0,0,1,37.11,0,33.21,33.21,0,0,1,13.11,13,38.8,38.8,0,0,1,4.8,19.61,38.25,38.25,0,0,1-4.95,19.67,34,34,0,0,1-13.36,13.08,37.89,37.89,0,0,1-18.67,4.62A36.75,36.75,0,0,1,613.83,931.26Zm30.49-9.06a23,23,0,0,0,9.06-9.07,29,29,0,0,0,3.5-14.74,29.68,29.68,0,0,0-3.41-14.75,22.33,22.33,0,0,0-9.06-9.06,25.77,25.77,0,0,0-24,0,21.39,21.39,0,0,0-8.74,9.06,30.42,30.42,0,0,0-3.29,14.75,31.31,31.31,0,0,0,3.2,14.86,21.59,21.59,0,0,0,8.64,9.07,24.53,24.53,0,0,0,11.79,3,25.2,25.2,0,0,0,12.08-3Z" transform="translate(-235.94 -69.72)"/><path class="cls-1" d="M706,864.67a28.06,28.06,0,0,1,14.29-3.42v12.39h-3q-20.15,0-20.15,21.85v39.27H685V862.61h12.09v11.66A23,23,0,0,1,706,864.67Z" transform="translate(-235.94 -69.72)"/><path class="cls-1" d="M748.65,872.46V915a9.79,9.79,0,0,0,2.26,7.38,11.48,11.48,0,0,0,7.77,2.14h8.85v10.24H756.71a21.5,21.5,0,0,1-15.1-4.59q-5-4.62-5-15.11V872.46h-9.34v-9.88h9.34V844.45h12.09v18.13h18.85v9.88Z" transform="translate(-235.94 -69.72)"/><path class="cls-1" d="M792.61,933a25.08,25.08,0,0,1-10.3-7.88,20.91,20.91,0,0,1-4.2-11.67h12.35a12.11,12.11,0,0,0,5.08,8.86,19.19,19.19,0,0,0,11.9,3.41,17.31,17.31,0,0,0,10.79-3,9.24,9.24,0,0,0,3.93-7.65,7.47,7.47,0,0,0-4.2-7,58.44,58.44,0,0,0-13-4.53,92.34,92.34,0,0,1-13.06-4.29,23,23,0,0,1-8.7-6.43,16.86,16.86,0,0,1-3.62-11.24,17.17,17.17,0,0,1,3.29-10.16,22.23,22.23,0,0,1,9.37-7.37,33.19,33.19,0,0,1,13.8-2.69,29.36,29.36,0,0,1,19.34,6,21.85,21.85,0,0,1,7.92,16.55H821.19a12.31,12.31,0,0,0-4.53-9.06,16.92,16.92,0,0,0-11.12-3.45,17.38,17.38,0,0,0-10.33,2.78,8.5,8.5,0,0,0-3.81,7.26,8,8,0,0,0,2.3,6,16.93,16.93,0,0,0,5.8,3.69,83.79,83.79,0,0,0,9.67,3,108.35,108.35,0,0,1,12.63,4.14,21.86,21.86,0,0,1,8.34,6,16.34,16.34,0,0,1,3.65,10.66,18.36,18.36,0,0,1-3.29,10.64,22,22,0,0,1-9.31,7.46,32.93,32.93,0,0,1-13.75,2.69A37,37,0,0,1,792.61,933Z" transform="translate(-235.94 -69.72)"/><line class="cls-2" x1="0.03" y1="918.43" x2="433.25" y2="918.43"/><text class="cls-3" transform="translate(464.82 922.72)">EST. 2010</text></svg>